<?xml version="1.0" encoding="UTF-8"?>
<svg version="1.1" xmlns="http://www.w3.org/2000/svg" width="512" height="512">
<path d="M0 0 C1.53584396 -0.00445668 1.53584396 -0.00445668 3.10271508 -0.0090034 C6.52072 -0.01764869 9.93868973 -0.01919513 13.35670471 -0.02069092 C15.81302973 -0.02532213 18.26935402 -0.03034719 20.72567749 -0.03573608 C27.39142321 -0.04883486 34.05715526 -0.05533776 40.72291064 -0.05974674 C44.89273946 -0.06251711 49.06256599 -0.06675594 53.23239326 -0.07125092 C64.79888354 -0.08343927 76.365372 -0.0937386 87.93186855 -0.09712601 C89.04078932 -0.09745536 89.04078932 -0.09745536 90.17211253 -0.09779136 C90.91307181 -0.09800964 91.6540311 -0.09822791 92.41744369 -0.09845281 C93.91868174 -0.09889626 95.41991979 -0.09934282 96.92115784 -0.09979248 C97.66580947 -0.10001391 98.4104611 -0.10023534 99.17767794 -0.10046348 C111.2257846 -0.10440592 123.27383058 -0.12184493 135.32191383 -0.145152 C147.71961763 -0.16893986 160.11729108 -0.18133127 172.51501805 -0.18249393 C179.46444671 -0.18340666 186.41379633 -0.18905666 193.36320305 -0.20731354 C199.90744023 -0.22444647 206.45155484 -0.22591195 212.99581718 -0.21717453 C215.38656008 -0.21640826 217.77731125 -0.22069214 220.1680336 -0.23063278 C251.91659841 -0.35481165 279.23072933 6.02543293 302.71046448 28.76544189 C321.30670991 47.56378764 329.74987983 72.39196282 329.72590637 98.55497742 C329.73036306 100.09082138 329.73036306 100.09082138 329.73490977 101.65769249 C329.74355506 105.07569742 329.7451015 108.49366715 329.74659729 111.91168213 C329.7512285 114.36800714 329.75625357 116.82433144 329.76164246 119.28065491 C329.77474123 125.94640063 329.78124414 132.61213267 329.78565311 139.27788806 C329.78842348 143.44771688 329.79266232 147.61754341 329.79715729 151.78737068 C329.80934564 163.35386096 329.81964498 174.92034941 329.82303238 186.48684597 C329.82325195 187.22612648 329.82347151 187.96540699 329.82369773 188.72708995 C329.82391601 189.46804923 329.82413429 190.20900851 329.82435918 190.97242111 C329.82480263 192.47365916 329.82524919 193.97489721 329.82569885 195.47613525 C329.82592028 196.22078689 329.82614171 196.96543852 329.82636985 197.73265535 C329.83031229 209.78076202 329.8477513 221.82880799 329.87105837 233.87689125 C329.89484623 246.27459505 329.90723764 258.6722685 329.9084003 271.06999546 C329.90931303 278.01942412 329.91496303 284.96877374 329.93321991 291.91818047 C329.95035284 298.46241765 329.95181832 305.00653226 329.9430809 311.5507946 C329.94231464 313.94153749 329.94659852 316.33228867 329.95653915 318.72301102 C330.08071803 350.47157582 323.70047344 377.78570675 300.96046448 401.26544189 C282.16211873 419.86168732 257.33394355 428.30485725 231.17092896 428.28088379 C229.63508499 428.28534047 229.63508499 428.28534047 228.06821388 428.28988719 C224.65020895 428.29853248 221.23223922 428.30007891 217.81422424 428.30157471 C215.35789923 428.30620592 212.90157493 428.31123098 210.44525146 428.31661987 C203.77950575 428.32971865 197.1137737 428.33622155 190.44801831 428.34063053 C186.27818949 428.3434009 182.10836296 428.34763973 177.93853569 428.3521347 C166.37204541 428.36432306 154.80555696 428.37462239 143.2390604 428.3780098 C142.13013963 428.37833915 142.13013963 428.37833915 140.99881643 428.37867515 C140.25785714 428.37889343 139.51689786 428.3791117 138.75348526 428.3793366 C137.25224721 428.37978005 135.75100917 428.38022661 134.24977112 428.38067627 C133.50511949 428.3808977 132.76046785 428.38111913 131.99325102 428.38134727 C119.94514436 428.38528971 107.89709838 428.40272872 95.84901512 428.42603579 C83.45131133 428.44982365 71.05363788 428.46221506 58.65591091 428.46337771 C51.70648225 428.46429045 44.75713263 428.46994045 37.80772591 428.48819733 C31.26348872 428.50533026 24.71937411 428.50679574 18.17511177 428.49805832 C15.78436888 428.49729205 13.3936177 428.50157593 11.00289536 428.51151657 C-20.74566945 428.63569544 -48.05980038 422.25545086 -71.53953552 399.51544189 C-90.13578095 380.71709615 -98.57895088 355.88892097 -98.55497742 329.72590637 C-98.55794854 328.7020104 -98.56091966 327.67811442 -98.56398082 326.6231913 C-98.57262611 323.20518637 -98.57417254 319.78721664 -98.57566833 316.36920166 C-98.58029954 313.91287665 -98.58532461 311.45655235 -98.5907135 309.00022888 C-98.60381227 302.33448316 -98.61031518 295.66875112 -98.61472416 289.00299573 C-98.61749452 284.83316691 -98.62173336 280.66334038 -98.62622833 276.49351311 C-98.63841669 264.92702283 -98.64871602 253.36053438 -98.65210342 241.79403782 C-98.65232299 241.05475731 -98.65254256 240.3154768 -98.65276878 239.55379384 C-98.65298705 238.81283456 -98.65320533 238.07187528 -98.65343022 237.30846268 C-98.65387367 235.80722463 -98.65432024 234.30598658 -98.6547699 232.80474854 C-98.65499133 232.0600969 -98.65521276 231.31544527 -98.6554409 230.54822844 C-98.65938333 218.50012177 -98.67682234 206.4520758 -98.70012942 194.40399254 C-98.72391728 182.00628874 -98.73630869 169.60861529 -98.73747134 157.21088833 C-98.73838408 150.26145966 -98.74403407 143.31211005 -98.76229095 136.36270332 C-98.77942389 129.81846614 -98.78088936 123.27435153 -98.77215195 116.73008919 C-98.77138568 114.3393463 -98.77566956 111.94859512 -98.7856102 109.55787277 C-98.90917162 77.96717008 -92.68961916 51.02570384 -70.16453552 27.45294189 C-50.8335842 8.76725182 -26.56153676 -0.02433863 0 0 Z M233.58546448 54.14044189 C228.89681951 61.08010298 226.54751058 68.43591477 228.06593323 76.78106689 C230.83548291 87.00238838 236.82681019 93.57007623 245.71046448 99.07794189 C253.61970768 101.92454879 262.48824344 101.11060468 270.02296448 97.70294189 C277.78329122 93.2950763 282.75858901 87.00322091 285.14796448 78.38653564 C286.67723526 70.53536868 285.44202711 64.16368352 281.58546448 57.14044189 C276.4250261 49.88084215 270.48294011 44.91993702 261.58546448 43.14044189 C250.5049447 41.90719686 240.89062608 45.65022074 233.58546448 54.14044189 Z M72.58546448 83.14044189 C71.57226135 83.47559814 70.55905823 83.81075439 69.51515198 84.15606689 C54.1663399 89.61855139 39.94454682 97.54694275 27.58546448 108.14044189 C27.07966858 108.56937744 26.57387268 108.99831299 26.05274963 109.44024658 C-0.04609141 131.74454596 -16.39241162 162.25984481 -21.41453552 196.14044189 C-21.5460199 197.01700439 -21.67750427 197.89356689 -21.81297302 198.79669189 C-25.94841442 232.32729782 -16.3020242 268.12540519 3.84327698 295.17169189 C6.03167044 297.88621479 8.28131562 300.52373024 10.58546448 303.14044189 C11.31636292 303.99251221 12.04726135 304.84458252 12.80030823 305.72247314 C37.19259705 333.62999515 70.9322803 349.2009291 107.58546448 352.14044189 C142.96304342 354.20232533 177.86421396 342.31099814 204.58546448 319.14044189 C205.41433167 318.43274658 206.24319885 317.72505127 207.09718323 316.99591064 C235.03308237 292.56804172 250.64180926 258.84527858 253.58546448 222.14044189 C255.64734791 186.76286295 243.75602072 151.86169241 220.58546448 125.14044189 C219.87776917 124.31157471 219.17007385 123.48270752 218.44093323 122.62872314 C194.76194776 95.5492529 160.93727503 79.04932819 125.09327698 76.26934814 C123.85190979 76.20553955 123.85190979 76.20553955 122.58546448 76.14044189 C121.61351135 76.08759033 120.64155823 76.03473877 119.64015198 75.98028564 C103.80775693 75.5498541 87.55396599 77.98918701 72.58546448 83.14044189 Z " fill="#f5f5f7" transform="translate(140.41453552246094,41.85955810546875)"/>
<path d="M0 0 C13.34471876 -0.41645662 26.51470434 2.12257271 38.44140625 8.16015625 C39.42496094 8.65257812 40.40851563 9.145 41.421875 9.65234375 C60.05201728 19.72659921 72.73012206 36.40425632 79.50390625 56.27734375 C85.43612579 76.86899041 82.92734943 99.07685032 72.94921875 117.98828125 C61.79736781 136.66362971 44.37674582 150.02192823 23.50390625 156.03515625 C0.94060509 161.4278514 -20.85541795 157.1443986 -40.546875 145.2265625 C-57.63653768 133.50097034 -69.66652052 116.07892617 -74.0703125 95.7890625 C-74.31201172 94.48775391 -74.31201172 94.48775391 -74.55859375 93.16015625 C-74.68878906 92.46792969 -74.81898438 91.77570313 -74.953125 91.0625 C-75.25698262 89.08945122 -75.43568659 87.15274204 -75.55859375 85.16015625 C-75.63787109 83.89365234 -75.63787109 83.89365234 -75.71875 82.6015625 C-76.13520662 69.25684374 -73.59617729 56.08685816 -67.55859375 44.16015625 C-67.06617188 43.17660156 -66.57375 42.19304687 -66.06640625 41.1796875 C-56.04581683 22.64878889 -39.20550416 9.45601547 -19.21875 3.09765625 C-16.3412837 2.34291099 -13.48275646 1.70327711 -10.55859375 1.16015625 C-9.52025391 0.96486328 -9.52025391 0.96486328 -8.4609375 0.765625 C-5.64674433 0.33222769 -2.84032085 0.17779108 0 0 Z " fill="#f5f5f7" transform="translate(252.55859375,176.83984375)"/>
</svg>
