<?xml version="1.0" encoding="UTF-8"?>
<svg version="1.1" xmlns="http://www.w3.org/2000/svg" width="512" height="512">
<path d="M0 0 C0.90054108 -0.00701431 1.80108215 -0.01402863 2.72891235 -0.02125549 C5.61750351 -0.03865402 8.50588962 -0.0451074 11.39453125 -0.046875 C12.38190277 -0.04754974 13.36927429 -0.04822449 14.38656616 -0.04891968 C28.87551745 -0.03317418 42.9506323 0.41012436 57.20703125 3.203125 C58.12000977 3.36941406 59.03298828 3.53570312 59.97363281 3.70703125 C96.04925523 10.34445411 130.33055298 24.95692361 160.20703125 46.203125 C160.84560059 46.65236328 161.48416992 47.10160156 162.14208984 47.56445312 C173.01180884 55.26238758 182.68903876 63.90472024 192.20703125 73.203125 C193.32549867 74.28127299 194.4439871 75.35939919 195.5625 76.4375 C201.94360049 82.64493135 207.72202768 89.18583396 213.20703125 96.203125 C213.97273438 97.14027344 214.7384375 98.07742187 215.52734375 99.04296875 C241.36197971 131.3154963 257.83372305 170.7213767 265.20703125 211.203125 C265.37074219 212.03875977 265.53445313 212.87439453 265.703125 213.73535156 C270.99583045 241.45644312 270.60643869 273.54121537 265.20703125 301.203125 C265.04605957 302.10015137 264.88508789 302.99717773 264.71923828 303.92138672 C257.58459713 343.35038817 240.82942219 380.62616487 216.20703125 412.203125 C215.53414063 413.08742188 214.86125 413.97171875 214.16796875 414.8828125 C202.06440775 430.47299601 187.76534628 445.08516977 172.20703125 457.203125 C171.27117187 457.96753906 170.3353125 458.73195313 169.37109375 459.51953125 C137.10282914 485.35902849 97.68737776 501.83007212 57.20703125 509.203125 C56.37139648 509.36683594 55.53576172 509.53054688 54.67480469 509.69921875 C27.06754794 514.97019006 -5.25856565 514.7676246 -32.79296875 509.203125 C-33.71609863 509.02088379 -34.63922852 508.83864258 -35.59033203 508.65087891 C-47.55028941 506.23548006 -59.26129085 503.18649524 -70.79296875 499.203125 C-71.54143066 498.94805176 -72.28989258 498.69297852 -73.06103516 498.43017578 C-84.45061927 494.51507937 -95.16690912 489.85929385 -105.79296875 484.203125 C-106.99335756 483.57396679 -108.19387537 482.94505465 -109.39453125 482.31640625 C-114.12907615 479.80764166 -118.68236535 477.31906798 -123.04296875 474.203125 C-127.33491611 471.53816291 -131.00924683 472.21171846 -135.79296875 473.203125 C-140.84175914 474.59396625 -145.80378107 476.22169548 -150.7734375 477.8671875 C-152.23219228 478.34301683 -153.6912078 478.81804749 -155.15046692 479.29232788 C-158.98644291 480.54130884 -162.81898234 481.80051614 -166.65081787 483.06213379 C-170.47431961 484.31930445 -174.30068155 485.56769637 -178.12695312 486.81640625 C-182.57778594 488.26954126 -187.02849163 489.72305445 -191.47824097 491.17950439 C-199.92692453 493.94457704 -208.37803886 496.70144551 -216.84375 499.4140625 C-217.74256393 499.70423248 -218.64137787 499.99440247 -219.56742859 500.29336548 C-225.55767343 502.203125 -225.55767343 502.203125 -227.79296875 502.203125 C-225.56621799 493.50700048 -222.79884036 485.03416825 -219.8984375 476.54296875 C-219.42355279 475.14459775 -218.94897539 473.74612236 -218.47468567 472.34754944 C-217.23209486 468.68588298 -215.98569328 465.02552572 -214.73834229 461.36547852 C-213.48821049 457.69552571 -212.24123488 454.02450149 -210.99414062 450.35351562 C-210.75115801 449.63856241 -210.50817539 448.9236092 -210.25782967 448.18699074 C-209.06077683 444.66444379 -207.86489829 441.14150548 -206.6713562 437.61776733 C-206.21634236 436.27494504 -205.76127555 434.9321407 -205.30615234 433.58935547 C-205.08836058 432.94668921 -204.87056881 432.30402294 -204.64617729 431.64188194 C-203.35740121 427.84555439 -202.047597 424.05725329 -200.72119141 420.27392578 C-200.42884109 419.42947403 -200.13649078 418.58502228 -199.83528137 417.71498108 C-199.32166379 416.23267097 -198.80020163 414.75304047 -198.26860046 413.27708435 C-197.11102238 409.90788322 -196.32803087 407.5460939 -197.79296875 404.203125 C-198.76016531 402.40677936 -198.76016531 402.40677936 -199.98046875 400.65625 C-200.65082153 399.64896851 -200.65082153 399.64896851 -201.3347168 398.62133789 C-201.81593994 397.90582764 -202.29716309 397.19031738 -202.79296875 396.453125 C-227.45214549 358.96041483 -243.76019081 313.74794376 -243.99609375 268.5078125 C-244.00310806 267.60585648 -244.01012238 266.70390045 -244.01734924 265.77461243 C-244.03477607 262.87573203 -244.04120262 259.97705587 -244.04296875 257.078125 C-244.04364349 256.08825592 -244.04431824 255.09838684 -244.04501343 254.07852173 C-244.02927713 239.5686263 -243.57994425 225.48118521 -240.79296875 211.203125 C-240.55151123 209.85758545 -240.55151123 209.85758545 -240.30517578 208.48486328 C-233.17224431 169.06531022 -216.42398945 131.76568955 -191.79296875 100.203125 C-191.10847656 99.30722656 -190.42398438 98.41132812 -189.71875 97.48828125 C-184.45080312 90.72436568 -178.7032776 84.40570187 -172.79296875 78.203125 C-172.22126953 77.60274414 -171.64957031 77.00236328 -171.06054688 76.38378906 C-163.05229615 68.03503683 -154.82807993 60.38976449 -145.53027344 53.50048828 C-143.80921019 52.21525358 -142.11658075 50.8989234 -140.42578125 49.57421875 C-123.54269376 36.53588915 -104.55816431 26.14991661 -84.79296875 18.203125 C-83.93026367 17.85556152 -83.06755859 17.50799805 -82.17871094 17.14990234 C-56.14827939 6.83371635 -28.10304154 0.14744495 0 0 Z M-103.79296875 122.203125 C-104.80230469 122.76966797 -104.80230469 122.76966797 -105.83203125 123.34765625 C-122.78259252 134.52422155 -131.36580731 154.87779516 -135.37109375 173.95703125 C-139.62956767 206.72362222 -126.36306537 236.97637575 -107.79296875 263.203125 C-107.03209961 264.28279541 -107.03209961 264.28279541 -106.25585938 265.38427734 C-96.44150375 279.26603187 -86.30537064 292.68009241 -74.79296875 305.203125 C-73.6216221 306.5323488 -72.45472282 307.86550907 -71.29296875 309.203125 C-70.12649282 310.5366252 -68.95981383 311.8699478 -67.79296875 313.203125 C-67.08269531 314.01910156 -66.37242187 314.83507812 -65.640625 315.67578125 C-61.64291478 320.2065195 -57.61215286 324.42691425 -52.98828125 328.31640625 C-50.36330722 330.57238927 -47.87217193 332.95200061 -45.35546875 335.328125 C-9.15705941 368.85444205 48.48635329 399.98911381 98.9375 399.41796875 C119.39492195 398.07369371 140.35539422 388.37286438 154.20703125 373.203125 C163.24295858 361.43189608 166.28795846 346.26303055 166.5703125 331.7109375 C166.09089581 328.40141582 165.32822961 326.82147923 163.20703125 324.203125 C160.57052557 322.38646371 157.76273791 320.99205831 154.89453125 319.578125 C154.05639893 319.15208984 153.2182666 318.72605469 152.35473633 318.28710938 C150.5625474 317.37886868 148.76710456 316.4770252 146.96875 315.58105469 C144.24810685 314.22361923 141.53918305 312.84505259 138.83203125 311.4609375 C129.412515 306.66672035 119.91472082 302.03737235 110.33203125 297.578125 C109.43508545 297.15208984 108.53813965 296.72605469 107.61401367 296.28710938 C101.59161044 293.52686491 95.84545338 291.14191855 89.20703125 293.078125 C82.11898595 298.09882375 77.28789119 305.36783904 72.28125 312.3515625 C70.10148759 315.34822269 67.874858 318.29196474 65.58203125 321.203125 C64.54175781 322.5334375 64.54175781 322.5334375 63.48046875 323.890625 C59.70117235 327.73485776 56.62396273 329.08423144 51.25 329.53515625 C22.62242802 328.32114645 -10.35206499 298.15051761 -29.08984375 279.0625 C-32.54769964 275.28740963 -35.67028969 271.25621123 -38.79296875 267.203125 C-39.51613281 266.27371094 -40.23929687 265.34429687 -40.984375 264.38671875 C-59.52748864 240.16779989 -59.52748864 240.16779989 -59.21875 231.328125 C-57.8044565 224.26963269 -50.58549233 218.78908599 -45.8449707 213.71606445 C-40.58670228 208.02360218 -35.15865734 202.00145814 -34.54956055 194.00927734 C-34.82566113 189.69191714 -36.02534675 186.23840357 -37.6875 182.3046875 C-37.99081741 181.56037979 -38.29413483 180.81607208 -38.60664368 180.04920959 C-39.59386521 177.63686594 -40.59890748 175.23245597 -41.60546875 172.828125 C-42.29280452 171.16408652 -42.97948646 169.49977783 -43.66552734 167.83520508 C-45.68627313 162.94861435 -47.73421774 158.07380951 -49.79296875 153.203125 C-50.08351135 152.51486633 -50.37405396 151.82660767 -50.67340088 151.11749268 C-52.40055627 147.03261696 -54.15008951 142.95802945 -55.91796875 138.890625 C-56.34182861 137.90980957 -56.76568848 136.92899414 -57.20239258 135.91845703 C-61.11108908 126.24290255 -61.11108908 126.24290255 -67.94140625 118.7265625 C-79.29983241 116.64159112 -93.58722898 116.3633786 -103.79296875 122.203125 Z " fill="#1f1f21" transform="translate(243.79296875,-0.203125)"/>
</svg>
